# xmcd
#
# Track frame offsets:
#	150
#	11835
#	32685
#	48960
#	59535
#	69885
#	84060
#	95085
#	108435
#	123450
#	139520
#	151290
#	163752
#	175410
#	189085
#	206642
#
# Disc length: 2931 seconds
#
# Revision: 1
# Processed by: cddbd v1.4PL0 Copyright (c) Steve Scherf et al.
# Submitted via: audiograbber 1.80
#
DISCID=cf0b7110
DTITLE=Manuela - Ein schöner Tag mit viel Musik
DYEAR=1900
DGENRE=
TTITLE0=Ich geh' noch zur Schule
TTITLE1=Doch mein Herz bleibt immer in Athen
TTITLE2=Ein schöner Tag mit viel Musik
TTITLE3=Hey Boy laß doch den Whisky
TTITLE4=Schwimmen lernt man im See
TTITLE5=Hand aufs Herz
TTITLE6=Schuld war nur der Bossa Nova
TTITLE7=Küsse unter'm Regenbogen
TTITLE8=Komm her
TTITLE9=Amigo
TTITLE10=Adios Santa Fee
TTITLE11=Es ist zum Weinen
TTITLE12=Herzklopfen
TTITLE13=Was soll ein Bayer in der Hitparade
TTITLE14=Gran Canaria
TTITLE15=In meinem Kalender
EXTD=
EXTT0=
EXTT1=
EXTT2=
EXTT3=
EXTT4=
EXTT5=
EXTT6=
EXTT7=
EXTT8=
EXTT9=
EXTT10=
EXTT11=
EXTT12=
EXTT13=
EXTT14=
EXTT15=
PLAYORDER=
